<!--?xml version="1.0" encoding="UTF-8"?-->
<svg xmlns="http://www.w3.org/2000/svg" viewBox="0 0 380 190" width="380" height="190" role="img" aria-labelledby="title desc">
  <title id="title">MeetGrid.Ai Logo</title>
  <desc id="desc">All black version of the MeetGrid.Ai logo.</desc>

  <!-- Chat bubble outline -->
  <path d="M30 35C30 20 45 15 65 15H115C135 15 150 25 150 40V95C150 110 135 120 115 120H85L60 145V120H65C45 120 30 110 30 95V35Z"
    fill="none"
    stroke="#000000"
    stroke-width="3.5"
    stroke-linecap="round"
    stroke-linejoin="round" />

  <!-- Neural network inside bubble -->
  <g transform="translate(90,70)" stroke-linecap="round" stroke-linejoin="round" stroke-width="2.5">
    <!-- connections -->
    <line x1="0" y1="0" x2="30" y2="-20" stroke="#000000"/>
    <line x1="0" y1="0" x2="30" y2="20" stroke="#000000"/>
    <line x1="0" y1="0" x2="-30" y2="-20" stroke="#000000"/>
    <line x1="0" y1="0" x2="-30" y2="20" stroke="#000000"/>

    <!-- outer nodes -->
    <circle cx="30" cy="-20" r="6" fill="#000000"/>
    <circle cx="30" cy="20" r="6" fill="#000000"/>
    <circle cx="-30" cy="-20" r="6" fill="#000000"/>
    <circle cx="-30" cy="20" r="6" fill="#000000"/>

    <!-- central node -->
    <circle cx="0" cy="0" r="10" fill="#000000"/>
  </g>

  <!-- Brand text -->
  <text x="170" y="90" font-family="Arial, Helvetica, sans-serif" font-size="28" font-weight="700" fill="#000000">
    MEETGRID.AI
  </text>
</svg>
