<svg xmlns="http://www.w3.org/2000/svg" width="240" height="240" viewBox="0 0 240 240" fill="none">
  <!-- Chat bubble -->
  <path d="M50 60C50 40 70 25 95 25H150C175 25 195 40 195 60V125C195 145 175 160 150 160H105L75 190V160H95C70 160 50 145 50 125V60Z" stroke="black" stroke-width="7" fill="none" stroke-linecap="round" stroke-linejoin="round"></path>
  
  <!-- AI Core (chip-like brain) -->
  <rect x="90" y="70" width="65" height="50" rx="12" stroke="black" stroke-width="6" fill="none"></rect>
  
  <!-- Inner nodes -->
  <circle cx="105" cy="85" r="5" fill="black"></circle>
  <circle cx="140" cy="85" r="5" fill="black"></circle>
  <circle cx="105" cy="105" r="5" fill="black"></circle>
  <circle cx="140" cy="105" r="5" fill="black"></circle>
  <circle cx="122" cy="95" r="5" fill="black"></circle>
  
  <!-- Short outer connectors -->
  <line x1="122" y1="70" x2="122" y2="55" stroke="black" stroke-width="4" stroke-linecap="round"></line>
  <circle cx="122" cy="50" r="5" fill="black"></circle>
  
  <line x1="122" y1="120" x2="122" y2="135" stroke="black" stroke-width="4" stroke-linecap="round"></line>
  <circle cx="122" cy="140" r="5" fill="black"></circle>
  
  <line x1="90" y1="95" x2="75" y2="95" stroke="black" stroke-width="4" stroke-linecap="round"></line>
  <circle cx="70" cy="95" r="5" fill="black"></circle>
  
  <line x1="155" y1="95" x2="170" y2="95" stroke="black" stroke-width="4" stroke-linecap="round"></line>
  <circle cx="175" cy="95" r="5" fill="black"></circle>
</svg>
